/* XPM */
static char *_dd92472c5e94a7fb321fdcd4a91d723KqLnphIh5TSPsV25[] = {
/* columns rows colors chars-per-pixel */
"60 60 133 2 ",
"   c None",
".  c #F7D741",
"X  c #F7D742",
"o  c #F7D747",
"O  c #F8D741",
"+  c #F8D742",
"@  c #F7D841",
"#  c #F7D945",
"$  c #F9D940",
"%  c #F8D841",
"&  c #F9D841",
"*  c #F8D941",
"=  c #F9D941",
"-  c #FAD940",
";  c #FAD941",
":  c #FADA41",
">  c #FBDB41",
",  c #F9D942",
"<  c #F8D843",
"1  c #F8D943",
"2  c #F9D943",
"3  c #F9DA42",
"4  c #FADA42",
"5  c #FBDA42",
"6  c #FBDB42",
"7  c #FBDA43",
"8  c #FBDB43",
"9  c #FCDB40",
"0  c #FCDB41",
"q  c #FCDB42",
"w  c #FBDC42",
"e  c #FBDC43",
"r  c #FBDD43",
"t  c #FCDC40",
"y  c #FDDC41",
"u  c #FFDE41",
"i  c #FCDC42",
"p  c #FDDC42",
"a  c #FDDD42",
"s  c #FCDC43",
"d  c #FCDD43",
"f  c #FEDD42",
"g  c #FDDE43",
"h  c #FFDE42",
"j  c #FFDF42",
"k  c #FEDE43",
"l  c #FFDE43",
"z  c #FFDF43",
"x  c #F8D844",
"c  c #F8D944",
"v  c #F9D945",
"b  c #F9DB44",
"n  c #F9DA45",
"m  c #F9DB45",
"M  c #FADB44",
"N  c #FBDB44",
"B  c #FADA45",
"V  c #FADB45",
"C  c #FBDB45",
"Z  c #F8D846",
"A  c #F9D946",
"S  c #F8D847",
"D  c #F9D947",
"F  c #F9DA47",
"G  c #FBDC44",
"H  c #FBDC45",
"J  c #FCDC44",
"K  c #FCDD44",
"L  c #FDDD44",
"P  c #FDDE44",
"I  c #FEDE44",
"U  c #FEDF44",
"Y  c #FEDF45",
"T  c #F7DB4A",
"R  c #F7DA4E",
"E  c #F8D949",
"W  c #F8DA48",
"Q  c #F9DB48",
"!  c #F8DA49",
"~  c #F9DA49",
"^  c #F8D94A",
"/  c #F8D94B",
"(  c #F8DB4A",
")  c #F9DB4A",
"_  c #F9DA4C",
"`  c #F9DB4C",
"'  c #F8DB4D",
"]  c #F9DA4E",
"[  c #F9DB4F",
"{  c #F7DC54",
"}  c #F9DB50",
"|  c #F8DB51",
" . c #F9DB51",
".. c #F9DB52",
"X. c #F9DC50",
"o. c #F9DC51",
"O. c #F9DC52",
"+. c #F9DD52",
"@. c #F9DC53",
"#. c #F9DB54",
"$. c #F9DC54",
"%. c #F9DD54",
"&. c #F9DC55",
"*. c #F9DD55",
"=. c #FADC54",
"-. c #FADC55",
";. c #FBDE55",
":. c #F8DC56",
">. c #F9DC56",
",. c #F8DD56",
"<. c #F9DD56",
"1. c #F8DC57",
"2. c #F9DD57",
"3. c #F7DC59",
"4. c #F8DD58",
"5. c #F8DC59",
"6. c #F8DD5A",
"7. c #F9DD5A",
"8. c #F9DE5C",
"9. c #F8DD5E",
"0. c #FFE042",
"q. c #FFE043",
"w. c #FFE143",
"e. c #FFE044",
"r. c #FFE144",
"t. c #FFE045",
"y. c #FFE145",
"u. c #FFE244",
"i. c #FFE445",
"p. c #FFE944",
"a. c #FFE846",
"s. c #FFE946",
"d. c #FFE665",
/* pixels */
"                                                                                                                        ",
"                                                                                                                        ",
"                                                                                                                        ",
"                                                                                                                        ",
"                                                                                                                        ",
"                e.% % % % % @ % % % % % % i 7.                                                                          ",
"                i.i i i i r r r % i q i % i 2.                                                                          ",
"                q.% % % % O % % % % % % % i 7.                                                                          ",
"                e.% % % % % % % % % % % % i 7.                                                                          ",
"                e.% % % % % % % % % % % % i 3.                                                                          ",
"                e.% % % % % % % % % % % % t 3.                                                                          ",
"                e.% % % % % % % % % % % % 9 7.                                                                          ",
"                e.% % % % % % % % % % % % 9 7.                                                                          ",
"                e.% % % % % % % % % % % % 9 3.                                                                          ",
"                e.% % % % % % % % % % % % 9 7.                                                                          ",
"                e.% % % % % % % % % % % % r 7.                                                                          ",
"                e.% % % % % % % % % % % % 9 7.                        2.2.o.o.2.} o.o.o.o.] [ ) W % # @ e.              ",
"                e.% % % % % % % % % % % % t 3.                      H i.q.e.q.q.i e.q.e.q.e.q.q.e.e.e.i.%               ",
"                i.% % % % % % % % % % % % i 7.                    W q.% % % % % % % % % % % % % % % P P                 ",
"                q.% % % % % % % % % % % % i 3.                  ) i.% % % % % % % % % % % % % % % i i                   ",
"                e.% % % % % % % % % % % % 9 3.                  i % % % % % % % % % % % % % % % i P                     ",
"                e.% % % % % % % % % % % % 9 7.                P r % % % % % % % % % % % % % % i P                       ",
"              { i.% % % % % % % % % % % % 9 7.              P % % % % % % % % % % % % % % O % P                         ",
"              2.q.% % % % % % % % % % % % 9 3.            P i % % % % % % % % % % % % % % r i                           ",
"              2.q.% % % % % % % % % % % % 9 7.          P i % % % % % % % % % % % % % % % P                             ",
"              2.i.% % % % % % % % % % % % q 7.        P i % % % % % % % % % % % % % % i P                               ",
"              2.q.% % % % % % % % % % % % 9 7.      M i % % % % % % % % % % % % % % % P                                 ",
"              2.i.% % % % % % % % % % % % 9 7.    M P % % % % % % % % % % % % % % % i                                   ",
"              2.q.% % % % % % % % % % % % t 7.  M e.% % % % % % % % % % % % % % % e.                                    ",
"              :.i.% % % % % % % % % % % % % 2.} P % % % % % % % % % % % % % % % e.[                                     ",
"              2.q.% % % % % % % % % % % % % q i % % % % % % % % % % % % % % % e.W                                       ",
"              :.q.% % % % % % % % % % % % % O % % % % % % % % % % % % % % % q.)                                         ",
"              :.q.@ % % % % % % % % % % % % % % % % % % % % % % % % % % % e.W                                           ",
"              2.e.% % % % % % % % % % % % % % % % % % % % % % % % % % % % i                                             ",
"              :.i.% % % % % % % % % % % % % % % % % % % % % % % % % % % % i H                                           ",
"              :.q.% % % % % % % % % % % % % % % % % % % % % % % % % % % % % i H                                         ",
"              2.i.% % % % % % % % % % % % % % % % % % % % % % % % % % % % % % q.W                                       ",
"              :.q.% % % % % % % % % % % % t [ ) q % % % % % % % % % % % % % % % e.W                                     ",
"              :.i.% % % % % % % % % % % % t 9.  i % % % % % % % % % % % % % % % % P                                     ",
"              2.q.% % % % % % % % % % % % 9 7.    q.% % % % % % % % % % % % % % % % P                                   ",
"              :.i.% % % % % % % % % % % % t 7.    W e.% % % % % % % % % % % % % % % i P                                 ",
"              :.q.% % % % % % % % % % % % t 7.      M e.% % % % % % % % % % % % % % % e.M                               ",
"              2.i.% % % % % % % % % % % % t ;.        P i % % % % % % % % % % % % % % % e.M                             ",
"              2.q.% % % % % % % % % % % % i o.          i % % % % % % % % % % % % % % % % e.o                           ",
"              { i.% % % % % % % % % % % % i }             e.% % % % % % % % % % % % % % % % P                           ",
"              2.q.% % % % % % % % % % % % i o.            # e.% % % % % % % % % % % % % % % q H                         ",
"              { i.% % % % % % % % % % % % i ]               H e.% % % % % % % % % % % % % % % P M                       ",
"              2.q.% % % % % % % % % % % % i M                 H i % % % % % % % % % % % % % % % e.M                     ",
"              2.i.% % % % % % % % % % % % q.%                   P % % % % % % % % % % % % % % % % e.M                   ",
"              :.q.% % % % % % % % % % % % i %                     e.% % % % % % % % % % % % % % % % e.                  ",
"              2.i.% % % % % % % % % % % % P %                     M e.% % % % % % % % % % % % % % % r i                 ",
"              :.q.% % % % % % % % % % % % P @                       M i % % % % % % % % % % % % % % % i %               ",
"              2.i.% % % % % % @ % % % % % e.%                         P i O O % % % % % % % % % % % % % e.%             ",
"              :.q.% % % % % % @ % % % % % i %                           P q % % % % % % % % % % % % % % % e.M           ",
"              2.p.q.i e.q.q.e.e.e.e.e.e.e.p..                             i e.e.e.e.q.q.q.q.q.q.e.e.e.e.e.e.p.          ",
"                d.9.7.#.] M M O % % O % % r                                 e.M W ] o.o.2.2.2.o.o.W # M % % P %         ",
"                                                                                                                        ",
"                                                                                                                        ",
"                                                                                                                        ",
"                                                                                                                        "
};
