/* XPM */
static char *_a4c243e0cb24784d95469c41ef1fd24rNcRk7h1mUccSFRM[] = {
/* columns rows colors chars-per-pixel */
"40 40 88 1 ",
"  c None",
". c #F7D740",
"X c #F7D741",
"o c #F7D744",
"O c #F8D741",
"+ c #F7D842",
"@ c #F7D843",
"# c #F7D844",
"$ c #F8D841",
"% c #F9D841",
"& c #F8D941",
"* c #F9D941",
"= c #FAD940",
"- c #FAD941",
"; c #FADA40",
": c #FBDA40",
"> c #FADA41",
", c #FBDA41",
"< c #FBDB41",
"1 c #F8D842",
"2 c #F9D842",
"3 c #F9D942",
"4 c #F8D843",
"5 c #F8D943",
"6 c #F9D943",
"7 c #FADA42",
"8 c #FADB42",
"9 c #FBDB42",
"0 c #FADA43",
"q c #FBDB43",
"w c #FCDB41",
"e c #FCDB42",
"r c #FBDC43",
"t c #FCDC42",
"y c #FDDC42",
"u c #FDDD42",
"i c #FCDC43",
"p c #FCDD43",
"a c #FDDD43",
"s c #FEDC42",
"d c #FEDE42",
"f c #FFDF42",
"g c #FEDE43",
"h c #FEDF43",
"j c #FFDF43",
"k c #F8D944",
"l c #F9D845",
"z c #F8D945",
"x c #F9D945",
"c c #F8DA44",
"v c #FADA44",
"b c #FADB44",
"n c #FBDB44",
"m c #FADB45",
"M c #FBDB45",
"N c #F8D846",
"B c #F8D946",
"V c #F8D947",
"C c #F8DA46",
"Z c #F9DA46",
"A c #F8DA47",
"S c #F9DA47",
"D c #FCDB44",
"F c #FBDC44",
"G c #FCDC44",
"H c #FCDD44",
"J c #FDDD44",
"K c #FEDD44",
"L c #FDDE44",
"P c #FEDE44",
"I c #F8D948",
"U c #F8D94B",
"Y c #F8DA4A",
"T c #FDDE48",
"R c #F8DA4D",
"E c #F8DB4D",
"W c #F8DA4E",
"Q c #F8DB4E",
"! c #F9DB4E",
"~ c #FCDE4F",
"^ c #F9DB50",
"/ c #F9DC52",
"( c #FFE043",
") c #FFE343",
"_ c #FFE044",
"` c #FFE144",
"' c #FFE244",
"] c #FFE344",
/* pixels */
"                                        ",
"                                        ",
"                                        ",
"         +...%                          ",
"     %]'('''''!                         ",
"     %%%%+.%%eR                         ",
"     +%%.%%++;R                         ",
"     %%+.;+%%:R                         ",
"     %%+%+.%+;R                         ",
"     +8++;;+%eR                         ",
"     %;++.+.%%R                         ",
"     +%%%;+%OeR        TIFcIccoc+y%     ",
"     %%++;+%+;R       Ly%88%ee%eyy      ",
"     #%%..%.%:R      yy+%%%+OO%yL       ",
"     c%+%+%.%:R     Fy;++;+%%%%L        ",
"     F%%+%+;+;R    F(.+%.+%+%%L         ",
"     c;++%;+%yR   c'+;.+%+%+8L          ",
"     %.%;+.%+%R  c(%%+.%+%+%y           ",
"     L%+..+.%;E %(%++%;+;%%'            ",
"     D+%+%;+%;!!(%+%%..%.%y             ",
"     D%+%+;.%+%y+%+%+%.+%y              ",
"     c%%+%%.+%%+%+%.;+;+L               ",
"     L%+.;+%%+%+++%..+%%8               ",
"     %+%.+%++%+%;.+;.%+%8L              ",
"     LOO+;.+%+%F+%;++%+%%Lc             ",
"     c%%%+.%%;R/y.+%;+%.+%'+            ",
"     L%++%;++;R %)%+..;.%+;(c           ",
"     c+%%..%;;R  Fy%+%+%+%+;L           ",
"     D%%..%+%yI   8y+%+++%;+%L          ",
"     c%%;++%+%R    L%%;.;+.%%ye         ",
"     F+%+%%.%8I    c'+%+..%+%+L%        ",
"     %%+.;++;yc     %(+%+%+%+%%'+       ",
"     LO+%+;+.y%      Fy%+%+;%+;%(#      ",
"     c%%+%+%%y%       L%%+.++%+.%y      ",
"     L%;;%+%+y+        L%.%+%+%+%e8     ",
"     y%8%yy8y(%        %)yyw8y%y%y]8    ",
"     ~YY#%%O+yO         %'%#IIIcc%%'+   ",
"                                        ",
"                                        ",
"                                        "
};
