/* XPM */
static char *ff7f9199412f4165c7e2a61d787ebd349L5h96XPRwnCegUE[] = {
/* columns rows colors chars-per-pixel */
"20 20 47 1 ",
"  c None",
". c #F7D742",
"X c #F8D742",
"o c #F8D841",
"O c #F9D841",
"+ c #F8D941",
"@ c #F9D941",
"# c #FAD941",
"$ c #FADA41",
"% c #F8D842",
"& c #F9D842",
"* c #F8D942",
"= c #F9D942",
"- c #F8D843",
"; c #F9DA43",
": c #FADA42",
"> c #FBDA42",
", c #FBDB42",
"< c #FCDB42",
"1 c #FCDC42",
"2 c #FDDC42",
"3 c #FDDD42",
"4 c #FCDC43",
"5 c #FDDC43",
"6 c #FCDD43",
"7 c #FDDD43",
"8 c #FEDD42",
"9 c #FEDD43",
"0 c #FEDE43",
"q c #FFDE43",
"w c #FFDF43",
"e c #F8D844",
"r c #F9D944",
"t c #F8D945",
"y c #F9D945",
"u c #F9DA44",
"i c #F9DA45",
"p c #F8D846",
"a c #F9D946",
"s c #F8D947",
"d c #F9DA47",
"f c #F7DA4A",
"g c #FFE043",
"h c #FFE044",
"j c #FFE144",
"k c #FFE445",
"l c #FFE545",
/* pixels */
"                    ",
"                    ",
"   +9+<p            ",
"   +q+<d            ",
"   +9X<p            ",
"   X<++r            ",
"   X9X+r   rkhhk9   ",
"   +<+<r  rh+++q    ",
"   r<++r +g+X9+     ",
"   e9X<rf9+X+9      ",
"   r<++Xq+.+9       ",
"   e9XX+,*++9       ",
"   r+++Xr9+X,9      ",
"   e9X<r +<++9+     ",
"   r<++r  9++Xg+    ",
"   e9X<+   gX++hX   ",
"   d6+++   ph+.+9   ",
"   dh,q+    +qqq99  ",
"                    ",
"                    "
};
